# xmcd
#
# Track frame offsets: 
#        150
#        11600
#        20812
#        28787
#        40075
#        48200
#        58537
#        67225
#        77800
#        89825
#        103950
#        119125
#        127887
#        138537
#        151300
#        159287
#        170037
#        178875
#        189637
#        202475
#        213350
#        222350
#
# Disc length: 3110 seconds
#
# Revision: 3
# Processed by: cddbd v1.5.1PL2 Copyright (c) Steve Scherf et al.
# Submitted via: ExactAudioCopy v0.95b4
#
DISCID=560c2416
DTITLE=Roger Miller - King Of The Road
DYEAR=1994
DGENRE=Country
TTITLE0=King Of The Road
TTITLE1=Chug-A-Lug
TTITLE2=Dang Me
TTITLE3=Husbands and Wives
TTITLE4=In The Summertime
TTITLE5=Engine Engine #9
TTITLE6=Can't Roller Skate In A Buffalo Herd
TTITLE7=Release Me
TTITLE8=Walkin' In The Sunshine
TTITLE9=My Elusive Dreams
TTITLE10=Me and Bobby McGee
TTITLE11=England Swings
TTITLE12=Kansas City Star
TTITLE13=The Last Word In Lonesome Is Me
TTITLE14=Do-Wack-A-Do
TTITLE15=When Two Worlds Collide
TTITLE16=Billy Bayou
TTITLE17=Burning Bridges
TTITLE18=Heartaches By The Number
TTITLE19=Don't We All Have The Right To Be Wrong
TTITLE20=My Uncle Used To Love Me (But She Died)
TTITLE21=Everything's Coming Up Roses
EXTD=ID3G:   2
EXTT0=
EXTT1=
EXTT2=
EXTT3=
EXTT4=
EXTT5=
EXTT6=
EXTT7=
EXTT8=
EXTT9=
EXTT10=
EXTT11=
EXTT12=
EXTT13=
EXTT14=
EXTT15=
EXTT16=
EXTT17=
EXTT18=
EXTT19=
EXTT20=
EXTT21=
PLAYORDER=
